<svg width="765" height="149" viewBox="0 0 765 149" fill="none" xmlns="http://www.w3.org/2000/svg">
    <path d="M48.7967 146.332H19.9995V74.3892H0.382324V50.966H19.9987V34.2987C19.9987 14.5479 28.6751 0.382812 57.3943 0.382812C63.4685 0.382812 73.0046 1.60977 73.0046 1.60977V23.3595H62.9885C52.7829 23.3595 48.7982 26.4705 48.7982 35.0715V50.966H72.6225L70.501 74.3892H48.7974L48.7967 146.332ZM114.872 49.0942C114.453 49.0942 114.021 49.1095 113.594 49.1202C86.8915 49.1202 74.6744 69.2493 74.6744 97.8231C74.6744 133.818 90.5216 148.225 113.803 148.225C127.122 148.225 135.874 142.606 141.193 132.121V146.342H168.583V50.9759H141.193V65.642C136.85 56.2062 127.854 49.206 114.872 49.0942ZM121.837 71.6289C133.052 71.6289 139.784 79.4686 139.784 92.8035L139.809 106.423C139.809 115.411 134.25 125.926 121.837 125.926C102.754 125.926 103.264 105.276 103.264 98.3983C103.264 75.2631 113.431 71.6289 121.837 71.6289ZM179.645 98.6641C179.645 87.0754 179.091 49.1562 228.387 49.1562C248.176 49.1562 256.439 55.4618 256.439 55.4618L249.798 76.1048C249.798 76.1048 241.545 71.5508 230.793 71.5508C217.02 71.5508 208.232 79.5521 208.232 93.6299L208.248 103.724C208.248 117.251 216.727 126.281 230.821 126.281C240.617 126.281 249.645 121.684 249.645 121.684L256.27 141.896C256.27 141.896 248.715 148.242 228.526 148.242C181.588 148.242 179.645 114.221 179.645 98.6641H179.645ZM417.038 49.1202C443.741 49.1202 456.15 69.2493 456.15 97.8231C456.15 133.818 440.302 148.225 417.021 148.225C403.702 148.225 393.855 142.607 388.536 132.121V146.342L361.491 146.332V3.28247L390.206 0.77265V64.3499C394.35 53.2269 407.971 49.1202 417.038 49.1202H417.038ZM408.987 71.6289C397.772 71.6289 390.206 79.4686 390.206 92.8035L390.179 106.423C390.162 115.411 395.419 125.926 408.987 125.926C428.07 125.926 427.56 105.276 427.56 98.3983C427.56 75.2631 417.394 71.6289 408.987 71.6289ZM306.262 49.1991C275.976 49.1991 259.986 65.7477 259.986 95.1563V100.62C259.986 138.79 282.44 148.617 309.21 148.617C335.23 148.617 347.008 141.323 347.008 141.323L341.634 121.9C341.634 121.9 327.78 127.808 312.653 127.808C296.971 127.808 290.226 123.802 288.498 108.699H349.303V93.1167C349.303 61.2159 331.358 49.1983 306.262 49.1983L306.262 49.1991ZM306.992 68.6481C317.476 68.6481 324.269 75.0908 323.896 90.0325H288.55C289.163 74.3065 296.489 68.6489 306.992 68.6489V68.6481ZM513.408 49.0681C482.306 49.0681 465.932 66.633 465.932 98.1103C465.932 141.299 494.157 148.251 513.46 148.251C541.718 148.251 560.518 133.004 560.518 98.5025C560.518 62.5922 539.379 49.0681 513.408 49.0681V49.0681ZM513.016 71.7071C526.692 71.7071 532.112 81.9646 532.112 93.6406V103.679C532.112 117.824 524.529 126.005 512.964 126.005C502.149 126.005 494.548 118.352 494.548 103.679V93.6406C494.548 77.9919 503.593 71.7071 513.016 71.7071V71.7071ZM617.724 49.0681C586.622 49.0681 570.248 66.633 570.248 98.1103C570.248 141.299 598.473 148.251 617.776 148.251C646.034 148.251 664.835 133.004 664.835 98.5025C664.835 62.5922 643.695 49.0681 617.724 49.0681V49.0681ZM617.333 71.7071C631.009 71.7071 636.427 81.9646 636.427 93.6406V103.679C636.427 117.824 628.845 126.005 617.281 126.005C606.466 126.005 598.864 118.352 598.864 103.679V93.6406C598.864 77.9919 607.909 71.7071 617.333 71.7071V71.7071ZM675.686 146.332V3.28247L704.485 0.77265V96.6536L733.057 50.966H763.47L733.665 98.285L764.618 146.332H734.118L704.485 99.6789V146.332H675.686Z" fill="#1877F2"/>
    </svg>
    