<svg width="2734" height="899" viewBox="0 0 2734 899" fill="none" xmlns="http://www.w3.org/2000/svg">
    <path d="M2653.59 549.028L2729.66 599.754C2704.97 636.13 2645.92 698.537 2543.83 698.537C2417.06 698.537 2322.64 600.422 2322.64 475.609C2322.64 342.787 2418.06 252.682 2533.16 252.682C2648.92 252.682 2705.64 344.789 2723.99 394.514L2734 419.877L2435.74 543.355C2458.43 588.074 2493.79 610.767 2543.83 610.767C2593.88 610.767 2628.57 586.072 2653.59 549.028ZM2419.73 468.601L2618.9 385.837C2607.89 358.138 2575.19 338.449 2536.16 338.449C2486.45 338.449 2417.39 382.5 2419.73 468.601Z" fill="#FF302F"/>
    <path d="M2178.85 25.416H2274.94V678.18H2178.85V25.416Z" fill="#20B15A"/>
    <path d="M2027.39 270.036H2120.14V666.5C2120.14 831.026 2023.05 898.772 1908.29 898.772C1800.19 898.772 1735.14 826.02 1710.78 766.951L1795.86 731.576C1811.2 767.952 1848.24 811.002 1908.29 811.002C1982.02 811.002 2027.39 765.282 2027.39 679.849V647.811H2024.05C2002.03 674.509 1960 698.537 1906.62 698.537C1795.19 698.537 1693.1 601.424 1693.1 476.277C1693.1 350.463 1795.19 252.349 1906.62 252.349C1959.67 252.349 2002.03 276.043 2024.05 302.073H2027.39V270.036ZM2034.06 476.277C2034.06 397.518 1981.68 340.118 1914.96 340.118C1847.57 340.118 1790.85 397.518 1790.85 476.277C1790.85 554.035 1847.57 610.434 1914.96 610.434C1981.68 610.768 2034.06 554.035 2034.06 476.277Z" fill="#3686F7"/>
    <path d="M1165.65 474.608C1165.65 603.092 1065.56 697.535 942.793 697.535C820.021 697.535 719.935 602.758 719.935 474.608C719.935 345.457 820.021 251.347 942.793 251.347C1065.56 251.347 1165.65 345.457 1165.65 474.608ZM1068.23 474.608C1068.23 394.514 1010.18 339.45 942.793 339.45C875.402 339.45 817.352 394.514 817.352 474.608C817.352 554.034 875.402 609.766 942.793 609.766C1010.18 609.766 1068.23 554.034 1068.23 474.608Z" fill="#FF302F"/>
    <path d="M1652.4 475.609C1652.4 604.093 1552.32 698.537 1429.54 698.537C1306.77 698.537 1206.69 604.093 1206.69 475.609C1206.69 346.458 1306.77 252.682 1429.54 252.682C1552.32 252.682 1652.4 346.124 1652.4 475.609ZM1554.65 475.609C1554.65 395.515 1496.6 340.451 1429.21 340.451C1361.82 340.451 1303.77 395.515 1303.77 475.609C1303.77 555.035 1361.82 610.767 1429.21 610.767C1496.93 610.767 1554.65 554.702 1554.65 475.609Z" fill="#FFBA40"/>
    <path d="M353.621 600.756C213.835 600.756 104.407 487.957 104.407 348.127C104.407 208.297 213.835 95.498 353.621 95.498C429.019 95.498 484.066 125.199 524.768 163.244L591.825 96.1654C535.11 41.7685 459.378 0.386719 353.621 0.386719C162.124 0.386719 0.985352 156.569 0.985352 348.127C0.985352 539.684 162.124 695.867 353.621 695.867C457.043 695.867 535.11 661.827 596.162 598.42C658.883 535.68 678.233 447.577 678.233 376.16C678.233 353.8 675.564 330.773 672.561 313.753H353.621V406.529H580.816C574.144 464.596 555.794 504.31 528.771 531.341C496.077 564.38 444.366 600.756 353.621 600.756Z" fill="#3686F7"/>
    </svg>
    